<svg width="589" height="432" viewBox="0 0 589 432" fill="none" xmlns="http://www.w3.org/2000/svg">
<path d="M458.865 185.086C463.023 181.431 463.429 175.097 459.774 170.94C456.121 166.782 449.789 166.375 445.631 170.031C441.474 173.685 441.066 180.018 444.721 184.177C448.376 188.334 454.708 188.742 458.865 185.086Z" fill="#0487F3"/>
<path d="M562.001 139.28C572.82 125.673 573.754 103.838 557.56 84.9905C540.944 66.5111 519.173 64.6406 504.294 73.6287C476.96 90.1407 480.7 110.726 472.673 128.229C467.109 140.362 462.93 143.834 462.93 143.834L474.531 157.032L475.483 158.116L487.084 171.315C487.084 171.315 491.062 167.615 503.806 163.65C522.192 157.928 542.125 164.277 562.001 139.28Z" fill="#FFD147"/>
<path d="M455.227 151.031L452.768 153.327L476.343 180.147L478.935 178.003L455.227 151.031Z" fill="#0487F3"/>
<path d="M460.308 146.284L457.849 148.581L481.701 175.715L484.293 173.571L460.308 146.284Z" fill="#0487F3"/>
<path d="M472.272 155.796C471.951 155.431 471.987 154.873 472.352 154.552C480.308 147.558 483.361 137.62 486.596 127.1C491.134 112.338 495.826 97.076 514.253 87.3776C514.684 87.1517 515.218 87.315 515.444 87.748C515.67 88.179 515.505 88.7108 515.074 88.9386C497.294 98.2951 492.712 113.203 488.28 127.618C484.971 138.384 481.846 148.553 473.516 155.876C473.149 156.198 472.593 156.162 472.272 155.796Z" fill="white"/>
<path d="M476.586 160.705C476.265 160.34 476.301 159.782 476.666 159.461C484.995 152.138 495.478 150.34 506.579 148.437C521.442 145.889 536.812 143.253 548.368 126.817C548.647 126.418 549.198 126.323 549.595 126.602C549.995 126.881 550.09 127.432 549.809 127.829C537.832 144.865 522.095 147.564 506.877 150.173C496.029 152.032 485.785 153.79 477.83 160.785C477.463 161.106 476.907 161.069 476.586 160.705Z" fill="white"/>
<path d="M540.678 117.69C539.942 116.852 539.112 116.83 538.208 117.623C537.259 118.459 536.254 120.29 535.996 123.013C537.557 122.561 538.962 121.837 539.959 120.962C540.616 120.385 541.028 119.783 541.151 119.224C541.269 118.689 541.113 118.186 540.678 117.69ZM522.331 96.8177C521.78 96.1892 521.171 95.91 520.472 95.9651C519.777 96.0183 519.006 96.4019 518.243 97.0722C517.356 97.8527 516.543 98.9561 515.928 100.225C519.002 100.508 521.345 99.8676 522.329 99.0016C522.68 98.694 522.866 98.3693 522.883 98.0369C522.906 97.5736 522.595 97.1178 522.331 96.8177ZM531.475 107.219C530.921 106.588 530.324 106.277 529.7 106.294C529.1 106.309 528.433 106.624 527.774 107.204C526.415 108.398 525.285 110.502 524.753 112.813C527.309 112.656 529.728 111.812 531.131 110.58C532.99 108.945 531.849 107.646 531.475 107.219ZM541.244 140.763C535.93 134.717 534.494 129.266 534.224 125.759C534.209 125.561 534.198 125.366 534.188 125.17C530.848 125.592 527.275 124.87 524.926 122.196C523.056 120.069 522.448 117.287 522.663 114.562C519.574 114.327 516.972 113.147 515.233 111.171C512.852 108.461 512.634 104.837 513.545 101.647C508.958 100.667 503.563 97.8926 498.653 92.3076C498.332 91.9429 498.368 91.3846 498.735 91.0637C499.099 90.7428 499.656 90.7788 499.977 91.1435C504.834 96.6696 509.972 99.146 514.143 99.9644C514.88 98.2534 515.922 96.7627 517.079 95.7467C518.131 94.8219 519.257 94.2882 520.337 94.2066C521.59 94.1097 522.737 94.6111 523.654 95.6536C524.343 96.436 524.685 97.2906 524.643 98.1243C524.603 98.939 524.205 99.7005 523.493 100.325C521.985 101.651 518.972 102.399 515.254 101.938C514.426 104.644 514.553 107.728 516.557 110.006C518.115 111.78 520.483 112.629 522.915 112.804C523.502 109.967 524.911 107.371 526.61 105.878C527.583 105.023 528.636 104.556 529.656 104.532C530.459 104.511 531.659 104.759 532.798 106.055C534.475 107.963 534.287 110.151 532.293 111.904C530.531 113.453 527.56 114.471 524.471 114.595C524.265 116.942 524.74 119.317 526.25 121.034C528.188 123.241 531.298 123.812 534.204 123.398C534.386 120.349 535.405 117.741 537.044 116.3C538.675 114.866 540.621 114.955 542.002 116.526C542.811 117.447 543.112 118.51 542.871 119.602C542.668 120.531 542.062 121.458 541.123 122.286C539.849 123.406 537.993 124.329 535.939 124.842C535.947 125.096 535.962 125.358 535.981 125.624C536.229 128.864 537.574 133.917 542.568 139.599C542.888 139.964 542.852 140.522 542.488 140.843C542.121 141.164 541.565 141.128 541.244 140.763Z" fill="white"/>
<path d="M349.902 130.537C346.269 45.7191 284.687 15.8075 284.687 15.8075C284.687 15.8075 223.103 45.7191 219.471 130.537C215.84 215.357 263.903 359.357 263.903 359.357H284.687H305.469C305.469 359.357 353.532 215.357 349.902 130.537Z" fill="#FFD147"/>
<path d="M322.947 50.0982C304.973 25.6635 284.687 15.8075 284.687 15.8075C284.687 15.8075 264.399 25.6635 246.425 50.0982H322.947Z" fill="#F6A505"/>
<path d="M244.578 296.28C254.484 333.366 263.3 359.776 263.3 359.776H306.073C306.073 359.776 314.889 333.366 324.794 296.28C324.948 295.703 324.513 295.135 323.915 295.135H245.457C244.859 295.135 244.424 295.703 244.578 296.28Z" fill="#053C5E"/>
<path d="M306.073 359.776H284.687H263.3L251.831 380.01H284.687H317.543L306.073 359.776Z" fill="#212B53"/>
<path d="M287.329 17.2128C285.645 5.54706 284.688 0 284.688 0C284.688 0 283.729 5.54706 282.044 17.2128H287.329Z" fill="#F6A505"/>
<path d="M316.643 111.18C316.643 93.5289 302.336 79.2179 284.687 79.2179C267.036 79.2179 252.729 93.527 252.729 111.18C252.729 128.834 267.036 143.143 284.687 143.143C302.336 143.143 316.643 128.834 316.643 111.18Z" fill="#F6A505"/>
<path d="M307.153 111.18C307.153 98.7722 297.094 88.7112 284.687 88.7112C272.279 88.7112 262.219 98.7703 262.219 111.18C262.219 123.591 272.279 133.65 284.687 133.65C297.094 133.65 307.153 123.591 307.153 111.18Z" fill="#0487F3"/>
<path d="M318.635 394.694H250.737L251.831 380.01H317.543L318.635 394.694Z" fill="#0487F3"/>
<path d="M246.475 300.494C246.475 300.494 253.172 303.172 258.955 322.622C264.741 342.072 261.103 350.661 261.103 350.661C229.154 368.867 220.32 410.663 218.21 424.683C218.011 426.009 216.196 426.231 215.681 424.993C208.126 406.781 184.036 336.268 246.475 300.494Z" fill="#F6A505"/>
<path d="M322.909 300.494C322.909 300.494 316.214 303.172 310.429 322.622C304.645 342.072 308.281 350.661 308.281 350.661C340.231 368.867 349.064 410.663 351.174 424.683C351.373 426.009 353.188 426.231 353.703 424.993C361.258 406.781 385.349 336.268 322.909 300.494Z" fill="#F6A505"/>
<path d="M392.94 429.29H395.576L374.046 343.863H371.413L392.94 429.29Z" fill="#0B3E5F"/>
<path d="M417.398 429.29H420.033L399.443 346.025H396.808L417.398 429.29Z" fill="#0B3E5F"/>
<path d="M400.911 361.1H376.319L376.879 363.267H401.473L400.911 361.1Z" fill="#0B3E5F"/>
<path d="M407.183 385.318H382.59L383.151 387.483H407.743L407.183 385.318Z" fill="#0B3E5F"/>
<path d="M413.455 409.534H388.86L389.422 411.701H414.015L413.455 409.534Z" fill="#0B3E5F"/>
<path d="M43.4132 425.39L61.1272 425.37C63.4775 425.615 66.1079 426.285 66.549 428.323C66.549 428.323 66.858 429.675 66.8065 431.025C66.1787 431.759 42.692 430.925 42.692 430.925L42.589 430.841C40.1003 427.846 43.4132 425.39 43.4132 425.39Z" fill="#12375A"/>
<path d="M66.8064 431.025L42.6887 430.925L42.898 431.865H66.8419L66.8064 431.025Z" fill="#212B53"/>
<path d="M50.4254 425.37L52.0225 425.38L51.5267 427.553H49.9778L50.4254 425.37Z" fill="white"/>
<path d="M53.8477 425.37L55.4417 425.38L54.9458 427.553H53.3969L53.8477 425.37Z" fill="white"/>
<path d="M42.1993 419.491L43.4131 425.39C44.8362 426.111 46.681 426.153 48.162 425.502L48.4324 425.383L49.2856 419.491H42.1993Z" fill="#F7B58E"/>
<path d="M2.01291 425.39L19.7269 425.37C22.0772 425.615 24.7076 426.285 25.1487 428.323C25.1487 428.323 25.4577 429.675 25.4062 431.025C24.7784 431.759 1.29173 430.925 1.29173 430.925L1.18871 430.841C-1.30323 427.846 2.01291 425.39 2.01291 425.39Z" fill="#212B53"/>
<path d="M25.4031 431.025L1.2886 430.925L1.49788 431.865H25.4385L25.4031 431.025Z" fill="#212B53"/>
<path d="M9.02512 425.37L10.619 425.38L10.1231 427.553H8.57753L9.02512 425.37Z" fill="white"/>
<path d="M12.4442 425.37L14.0414 425.38L13.5455 427.553H11.9966L12.4442 425.37Z" fill="white"/>
<path d="M2.78261 419.491L2.01314 425.39C3.43618 426.111 5.28421 426.153 6.76198 425.502L7.02921 425.383L9.86564 419.491H2.78261Z" fill="#F7B58E"/>
<path d="M29.2181 221.034L14.6303 230.546L19.1345 242.077C19.1988 242.241 19.2826 242.392 19.3566 242.55C19.6786 242.531 19.9973 242.511 20.3225 242.511C20.374 242.511 20.4287 242.515 20.4802 242.518C20.5317 242.518 20.58 242.511 20.6315 242.511C24.5369 242.511 27.8917 244.914 29.9296 248.146C32.2928 247.969 34.6366 247.396 36.8163 246.359C38.3005 245.654 39.5915 244.814 40.0584 243.902C41.6198 235.724 29.2181 221.034 29.2181 221.034Z" fill="#F7B58E"/>
<path d="M47.7725 224.016C47.7725 224.016 49.5593 240.95 45.9631 251.734C47.634 253.186 53.7641 259.755 55.6926 251.238C57.6211 242.721 53.5291 221.034 53.5291 221.034L47.7725 224.016Z" fill="#F7B58E"/>
<path d="M39.0191 222.818L35.5865 225.027L36.8133 227.59L40.4971 225.964L39.0191 222.818Z" fill="#212B53"/>
<path d="M37 225.899C37.3446 226.682 37.3671 227.429 37.0548 227.567C36.7424 227.706 36.2079 227.181 35.8634 226.398C35.5188 225.613 35.4963 224.866 35.8086 224.73C36.121 224.592 36.6555 225.117 37 225.899Z" fill="#212B53"/>
<path d="M80.4348 210.327C80.438 210.295 80.4445 210.263 80.4477 210.231C79.8006 208.759 78.6641 206.421 77.1283 204.273C74.6493 200.799 73.941 199.063 73.941 199.063L38.4969 222.264L40.7924 226.598L80.438 211.944C80.4026 211.403 80.3898 210.862 80.4348 210.327Z" fill="#053C5E"/>
<path d="M25.9985 248.153L24.7236 256.116H36.0017L36.813 246.359L25.9985 248.153Z" fill="#F39F85"/>
<path d="M55.1227 267.908C55.1227 267.908 68.4453 263.667 72.6178 257.961C76.7936 252.255 69.7266 221.034 69.7266 221.034L70.641 215.415C71.1561 212.253 68.7286 209.374 65.5251 209.345L61.9675 209.313C60.4865 209.3 59.4884 210.823 60.0873 212.179L64.7685 222.711C64.7685 222.711 68.2811 246.359 63.3616 248.153C57.4923 250.246 50.8504 250.748 50.8504 250.748L55.1227 267.908Z" fill="#F7B58E"/>
<path d="M30.0971 248.153L26.6715 240.554L28.8994 239.156C30.5446 238.122 31.2626 236.094 30.6348 234.255L28.1943 227.094C28.1943 227.094 35.1357 226.244 34.9264 219.775C34.9264 216.445 30.345 216.426 30.345 216.426C30.345 216.426 28.9767 219.404 24.7237 219.755C22.8982 219.527 17.8885 220.2 14.508 226.102C12.235 230.069 13.2298 236.287 15.2099 240.95C16.9838 245.129 21.5105 247.464 25.9986 248.153H30.0971Z" fill="#12375A"/>
<path d="M16.5525 312.006C16.5525 312.006 17.2608 328.209 20.7636 345.778C21.7971 350.952 21.4076 356.307 19.7237 361.308C11.7682 384.943 0.618874 420.482 0.618874 420.482H10.5383C10.5383 420.482 33.0141 378.48 38.806 357.643C44.598 336.81 45.5897 330.196 45.5897 330.196L38.6966 312.006H16.5525Z" fill="#212B53"/>
<path d="M24.8267 237.012C24.4177 238.209 25.2453 239.797 26.6718 240.554C28.0982 241.31 29.5859 240.953 29.9948 239.758C30.4038 238.56 29.5762 236.973 28.1498 236.216C26.7233 235.459 25.2356 235.817 24.8267 237.012Z" fill="#F7B58E"/>
<path d="M48.8993 312.006H16.5524V270.503C16.5524 261.41 23.4712 253.814 32.5214 252.97L55.0165 250.246C55.0165 250.246 57.6597 254.293 65.0293 263.702C56.1723 269.176 45.9212 271.698 45.9212 271.698L48.8993 312.006Z" fill="#0487F3"/>
<path d="M16.5524 312.006C16.5524 312.006 21.121 328.541 37.9753 347.075C40.7892 349.874 44.8427 355.695 44.2664 363.929L40.7892 420.482H50.8504C50.8504 420.482 63.1137 373.518 60.4672 350.369C57.8207 327.217 48.8929 312.006 48.8929 312.006H16.5524Z" fill="#053C5E"/>
<path d="M75.0067 206.482C76.7452 210.092 79.1052 212.559 80.2803 211.992C81.4522 211.428 80.9918 208.044 79.2533 204.434C77.5147 200.825 75.1548 198.358 73.9796 198.922C72.8045 199.488 73.2649 202.873 75.0067 206.482Z" fill="#0487F3"/>
<path d="M46.3751 217.109L46.6745 217.25C47.7305 217.756 48.9411 217.833 50.0486 217.463L50.2482 217.395C52.0737 216.787 53.5 215.341 54.0827 213.505C54.3435 212.691 53.6255 211.899 52.7884 212.076L50.5476 212.546C49.6751 212.726 48.9089 213.248 48.4195 213.995L46.3751 217.109Z" fill="#F7B58E"/>
<path d="M122.772 354.652C117.92 389.354 123.229 425.306 123.229 424.994C123.229 424.681 127.096 424.994 127.096 424.994C127.096 424.994 132.457 382.811 133.715 368.73C134.971 354.652 133.715 353.712 133.715 353.712C133.715 353.712 127.624 319.95 122.772 354.652Z" fill="#F39F85"/>
<path d="M121.497 265.106L109.633 272.67L104.627 262.24L119.958 244.669L121.497 265.106Z" fill="#0487F3"/>
<path d="M184.114 195.618L169.591 233.579L160.315 226.675L181.04 191.728L184.114 195.618Z" fill="#F7B58E"/>
<path d="M184.958 182.731C183.815 183.659 183.055 184.976 182.82 186.431L181.04 191.728L181.606 192.726L184.114 195.618C184.262 194.472 185.106 193.634 185.106 193.634L189.06 189.21C189.06 189.21 195.541 181.649 189.491 179.083C193.042 172.06 190.499 172.241 190.499 172.241L187.321 178.259L184.958 182.731Z" fill="#F7B58E"/>
<path d="M185.869 184.116C185.869 184.116 184.562 182.883 185.725 179.953C186.89 177.022 185.129 177.225 185.129 177.225C185.129 177.225 180.276 188.65 181.835 189.951C183.393 191.249 185.869 184.116 185.869 184.116Z" fill="#F7B58E"/>
<path d="M142.482 241.381L146.832 241.722L161.61 224.492L169.591 233.579C169.591 233.579 162.27 247.406 151.555 261.719C150.946 264.63 147.772 293.919 147.772 293.919H122.147C122.147 293.919 126.23 272.429 119.018 260.469C111.809 248.51 142.482 241.381 142.482 241.381Z" fill="#0487F3"/>
<path d="M134.082 354.652C129.23 389.354 134.54 425.306 134.54 424.994C134.54 424.681 138.406 424.994 138.406 424.994C138.406 424.994 143.767 382.811 145.022 368.73C146.281 354.652 145.022 353.712 145.022 353.712C145.022 353.712 138.934 319.95 134.082 354.652Z" fill="#F7B58E"/>
<path d="M143.416 214.581L128.654 219.749L130.109 230.768C130.129 230.922 130.171 231.074 130.2 231.228C130.483 231.28 130.766 231.331 131.049 231.402C131.095 231.412 131.14 231.428 131.188 231.441C131.233 231.451 131.278 231.457 131.32 231.467C134.726 232.304 137.138 235.118 138.219 238.377C140.319 238.728 142.485 238.731 144.607 238.293C146.053 237.997 147.36 237.543 147.962 236.847C151.078 230.05 143.416 214.581 143.416 214.581Z" fill="#F7B58E"/>
<path d="M143.796 223.858C142.463 226.521 142.221 229.654 143.493 232.342C145.499 236.593 145.322 241.358 143.986 243.976C143.075 245.757 140.692 247.541 138.58 248.858C136.359 250.243 134.9 252.567 134.662 255.176C134.333 258.76 133.992 263.158 130.921 264.217C122.012 267.286 118.748 266.99 117.56 259.565C117.257 257.668 117.36 254.883 118.329 252.29C119.507 249.135 119.404 245.622 118.055 242.54C117.164 240.502 116.375 238.261 116.375 236.718C116.375 235.034 117.917 232.668 119.533 230.649C121.552 228.127 122.444 224.92 122.154 221.703C121.867 218.49 122.318 214.384 125.576 211.599C131.664 206.405 145.174 214.581 145.174 214.581C145.174 214.581 146.471 218.519 143.796 223.858Z" fill="#212B53"/>
<path d="M104.627 262.241L98.928 268.14C95.1418 272.062 93.9731 277.516 98.5223 280.517L117.141 295.307L115.428 298.514C113.986 301.213 114.253 304.507 116.111 306.938L118.078 309.517L122.434 294.56L108.934 277.703C107.489 276.193 107.83 273.73 109.633 272.67L104.627 262.241Z" fill="#F7B58E"/>
<path d="M147.769 293.919C147.769 293.919 151.523 303.656 151.523 313.523C151.523 318.942 146.829 359.814 146.829 359.814C146.829 359.814 126.948 359.814 122.434 359.814C124.086 329.629 114.939 325.926 114.939 312.879C114.939 303.676 122.147 293.919 122.147 293.919H147.769Z" fill="#053C5E"/>
<path d="M123.229 420.453C123.229 420.453 121.098 422.131 121.487 424.266C121.877 426.404 122.431 431.411 122.431 431.411H124.623L124.556 426.742C124.562 426.436 129.259 431.411 130.055 431.411H141.661C141.661 431.411 142.431 428.262 135.618 427.248C128.806 426.237 123.229 420.453 123.229 420.453Z" fill="#212B53"/>
<path d="M135.624 420.453C135.624 420.453 133.493 422.131 133.883 424.266C134.272 426.404 134.826 431.411 134.826 431.411H137.019L136.951 426.742C136.957 426.436 141.655 431.411 142.45 431.411H154.056C154.056 431.411 154.826 428.262 148.013 427.248C141.198 426.237 135.624 420.453 135.624 420.453Z" fill="#12375A"/>
<path d="M397.263 135.905C397.263 135.905 413.103 166.403 411.987 173.11C410.875 179.821 397.263 191.466 397.263 191.466L395.066 187.663L401.975 172.041L393.075 146.402L397.263 135.905Z" fill="#F7B58E"/>
<path d="M380.292 122.817L381.574 131.549H389.335L390.128 118.138L380.292 122.817Z" fill="#F39F85"/>
<path d="M366.087 161.378V136.764C376.05 129.711 383.085 130.46 383.085 130.46C384.83 130.277 385.203 130.28 387.524 130.277C387.587 130.277 404.199 129.045 401.139 155.36C394.506 177.729 397.693 187.6 397.693 187.6C397.693 187.6 380.338 194.673 370.646 189.685C373.083 184.093 368.595 168.724 366.154 161.265C366.134 161.298 366.107 161.341 366.087 161.378Z" fill="#0487F3"/>
<path d="M391.966 127.679C391.966 127.679 398.559 131.549 398.559 137.673C398.559 141.467 397.07 143.711 395.359 146.369C392.532 150.758 392.562 156.483 395.685 160.665C395.732 160.729 395.778 160.788 395.825 160.852C397 162.38 397.23 163.952 396.917 165.451C395.702 171.259 387.707 172.128 384.614 167.063C383.478 165.201 382.386 162.973 381.574 160.412C380.219 156.116 381.554 153.422 383.212 151.804C384.621 150.438 384.784 148.214 383.415 146.808C380.921 144.257 378.461 140.408 381.574 137.017C386.795 131.329 388.283 126.011 388.283 126.011L391.966 127.679Z" fill="#212B53"/>
<path d="M406.67 324.189L402.018 324.994C401.059 319.23 386.602 291.889 385.426 277.686C384.121 261.92 380.458 244.37 380.458 244.37L396.008 239.744C396.008 239.744 399.947 239.744 395.622 271.874C405.345 284.642 407.952 313.608 406.67 324.189Z" fill="#F39F85"/>
<path d="M373.15 102.213L387.497 101.534L390.048 111.418C390.085 111.558 390.101 111.701 390.128 111.841C389.905 111.981 389.682 112.124 389.465 112.281C389.429 112.304 389.399 112.334 389.362 112.36C389.329 112.384 389.292 112.404 389.259 112.427C386.645 114.312 385.56 117.539 385.759 120.686C384.094 121.708 382.246 122.458 380.292 122.814C378.96 123.057 377.688 123.12 376.936 122.737C371.948 118.025 373.15 102.213 373.15 102.213Z" fill="#F7B58E"/>
<path d="M392.009 125.585C388.283 126.011 394.203 125.585 388.283 126.011C388.117 122.867 378.004 114.692 376.08 113.033C371.169 108.804 371.535 103.692 371.535 103.692C371.535 103.692 381.301 93.1619 387.627 95.3964C392.582 97.1448 394.293 101.054 395.093 103.739C395.795 106.09 397.247 110.096 392.009 125.585Z" fill="#212B53"/>
<path d="M395.219 228.059C395.219 228.059 391.566 250.038 386.485 273.546C391.79 287.739 383.705 327.349 383.555 327.209C382.946 326.636 380.152 330.076 380.152 330.076C380.152 330.076 374.255 295.119 372.95 279.357C371.645 263.592 369.65 244.37 369.65 244.37L395.219 228.059Z" fill="#F7B58E"/>
<path d="M384.214 324.994C384.214 324.994 386.429 326.873 386.022 329.267C385.616 331.658 385.044 337.263 385.044 337.263H382.766L382.836 332.035C382.829 331.695 377.955 337.263 377.129 337.263H365.085C365.085 337.263 364.286 333.736 371.358 332.604C378.431 331.472 384.214 324.994 384.214 324.994Z" fill="#053C5E"/>
<path d="M388.29 127.679H391.966C392.788 127.679 393.461 127.01 393.461 126.187V125.834C393.461 125.012 392.788 124.339 391.966 124.339H388.29C387.467 124.339 386.795 125.012 386.795 125.834V126.187C386.795 127.01 387.467 127.679 388.29 127.679Z" fill="#FFDA71"/>
<path d="M371.325 184.31C371.325 184.31 367.379 206.499 367.379 217.542C367.379 223.609 370.18 249.365 370.18 249.365C370.18 249.365 393.255 250.038 397.939 250.038C398.539 231.778 405.345 219.746 405.345 205.137C405.345 194.833 396.265 185.842 396.265 185.842L371.325 184.31Z" fill="#053C5E"/>
<path d="M327.333 158.57L328.371 158.87C330.466 159.48 332.111 161.111 332.737 163.199L332.983 164.022C332.983 164.022 342.087 167.169 352.239 168.458C362.588 138.989 366.087 136.764 366.087 136.764C366.087 136.764 372.767 138.889 372.767 146.958C372.767 153.725 368.245 172.897 359.647 178.901C357.277 180.557 354.157 180.696 351.546 179.454C337.725 172.89 327.975 167.279 327.975 167.279L317.543 161.518L322.151 159.093C323.746 158.254 325.604 158.068 327.333 158.57Z" fill="#F7B58E"/>
<path d="M401.489 321.012L401.809 325.997C401.879 327.049 401.586 328.085 400.99 328.951C400.327 329.906 399.211 331.212 397.367 332.714C400.86 333.836 404.033 329.92 405.698 327.319C406.51 326.05 406.827 324.532 406.603 323.043L406.017 319.12L401.489 321.012Z" fill="#F39F85"/>
<path d="M406.67 323.756C406.67 323.756 409.74 324.029 410.249 326.366C410.759 328.701 412.211 333.43 412.211 333.43L410.536 334.765L408.175 330.076C408.175 330.076 403.094 336.927 402.288 337.263H389.142C389.142 337.263 389.142 332.91 397.367 332.714C404.949 332.534 406.67 323.756 406.67 323.756Z" fill="#212B53"/>
<path d="M457.935 230.148L453.508 226.447C453.121 226.117 452.937 225.609 453.016 225.109L453.207 223.922C453.269 223.544 453.476 223.203 453.786 222.979L458.383 219.628C458.926 219.23 459.673 219.258 460.184 219.699L460.723 220.159C461.007 220.406 461.189 220.749 461.223 221.124L461.91 228.256L457.935 230.148Z" fill="#F7B58E"/>
<path d="M461.911 228.256L462.721 223.217C462.863 222.334 462.144 221.547 461.249 221.61L459.037 221.763C458.449 221.806 457.077 224.692 457.077 224.692C457.077 224.692 458.847 226.234 459.827 223.462C460.15 223.706 460.923 223.669 460.923 223.669C460.923 223.669 458.202 225.947 459.043 229.622L461.911 228.256Z" fill="#F39F85"/>
<path d="M457.02 230.25C457.02 230.25 467.391 258.291 473.153 268.473C478.915 278.652 496.862 295.17 496.862 295.17L505.208 272.506C505.208 272.506 489.075 264.638 481.112 256.251C473.153 247.862 462.399 227.177 462.399 227.177L457.02 230.25Z" fill="#0487F3"/>
<path d="M550.791 213.686L553.367 208.52C553.588 208.062 553.557 207.523 553.282 207.097L552.631 206.086C552.424 205.765 552.097 205.535 551.723 205.452L546.168 204.223C545.512 204.078 544.839 204.404 544.547 205.012L544.237 205.651C544.075 205.989 544.05 206.378 544.166 206.733L546.392 213.544L550.791 213.686Z" fill="#F7B58E"/>
<path d="M546.393 213.544L543.632 209.252C543.15 208.5 543.493 207.489 544.337 207.188L546.427 206.444C546.981 206.245 549.395 208.341 549.395 208.341C549.395 208.341 548.39 210.462 546.382 208.315C546.183 208.67 545.462 208.946 545.462 208.946C545.462 208.946 548.867 209.943 549.568 213.646L546.393 213.544Z" fill="#F7B58E"/>
<path d="M580.552 394.025C580.552 394.025 583.968 397.711 586.109 406.109C586.581 407.961 585.95 409.955 589 409.955C589 406.033 589 399.759 589 399.759L587.535 391.281H589V386.703C589 386.703 581.512 385.427 580.552 388.1C580.552 390.577 580.552 394.025 580.552 394.025Z" fill="#212B53"/>
<path d="M575.174 393.51L580.552 394.025C581.711 392.355 581.785 390.159 580.74 388.415L580.552 388.1L575.174 386.2V393.51Z" fill="#F7B58E"/>
<path d="M527.287 319.967C527.287 319.967 533.602 338.687 531.794 359.164C531.308 364.66 535.19 369.545 540.611 370.565C557.172 373.683 576.088 385.828 576.088 385.828V394.277C576.088 394.277 524.896 389.668 514.218 382.368C503.541 375.072 498.503 327.437 498.503 327.437L527.287 319.967Z" fill="#212B53"/>
<path d="M503.172 268.663C491.563 276.346 496.862 323.597 496.862 323.597L532.302 319.371L528.459 284.414C528.459 284.414 544.592 264.758 547.665 250.384C550.737 236.012 552.273 213.345 552.273 213.345H545.745C545.745 213.345 538.447 242.894 533.838 250.384C529.229 257.873 513.866 268.473 513.866 268.473L503.172 268.663Z" fill="#0487F3"/>
<path d="M456.575 420.753C456.575 420.753 452.889 424.17 444.491 426.309C442.64 426.78 440.646 426.152 440.646 429.203C444.571 429.203 450.841 429.203 450.841 429.203L459.318 427.737V429.203H463.895C463.895 429.203 465.17 421.713 462.498 420.753C460.022 420.753 456.575 420.753 456.575 420.753Z" fill="#212B53"/>
<path d="M457.088 415.374L456.574 420.753C458.244 421.912 460.439 421.983 462.183 420.941L462.498 420.753L464.398 415.374H457.088Z" fill="#F7B58E"/>
<path d="M510.941 267.953L509.393 261.344L501.803 262.193L501.238 270.043C501.286 270.1 501.34 270.151 501.394 270.202C504.322 268.74 507.644 267.956 510.941 267.953Z" fill="#F39F85"/>
<path d="M513.551 248.438L511.56 258.83C510.524 258.643 509.757 259.677 509.82 260.682C509.678 260.906 509.581 261.162 509.538 261.429C507.551 262.471 504.032 263.701 499.909 262.301C493.463 260.111 499.244 247.862 499.244 247.862L513.551 248.438Z" fill="#F7B58E"/>
<path d="M515.786 256.763C515.942 256.004 517.214 254.522 517.867 254.099C522.07 251.378 519.046 248.543 517.961 247.614C516.763 246.583 517.356 244.232 515.837 242.661C513.52 240.264 510.717 242.025 509.095 241.483C507.471 240.943 506.747 238.58 504.16 239.418C501.573 240.253 501.576 242.193 500.687 242.888C499.798 243.581 498.682 241.164 495.964 243.368C491.835 246.723 498.654 249.355 498.654 249.355C498.654 249.355 502.289 251.488 507.676 250.196C508.414 250.02 509.223 250.29 509.584 250.957C510.569 252.795 509.368 261.528 509.368 261.528L511.268 260.35C511.268 260.35 515.07 260.247 515.786 256.763Z" fill="#212B53"/>
<path d="M511.694 257.067C511.243 257.842 510.249 258.103 509.476 257.654C508.701 257.203 508.437 256.209 508.888 255.433C509.34 254.661 510.334 254.397 511.106 254.848C511.882 255.3 512.143 256.291 511.694 257.067Z" fill="#F7B58E"/>
<path d="M496.862 323.597C496.862 323.597 471.213 348.017 468.919 353.99C466.621 359.962 457.02 415.789 457.02 415.789H464.318C464.318 415.789 478.957 391.999 483.435 373.317C485.014 366.728 489.97 361.471 496.441 359.463C536.842 346.946 532.302 319.371 532.302 319.371L496.862 323.597Z" fill="#053C5E"/>
<path d="M501.386 267.231L501.229 270.83L512.969 268.487L510.507 264.567L501.386 267.231Z" fill="white"/>
<path d="M433.161 341.644C433.161 344.064 431.199 346.025 428.779 346.025H340.265C337.846 346.025 335.884 344.064 335.884 341.644C335.884 339.224 337.846 337.263 340.265 337.263H428.779C431.199 337.263 433.161 339.224 433.161 341.644Z" fill="#FFD147"/>
<path fill-rule="evenodd" clip-rule="evenodd" d="M166.631 123.142L166.408 127.429C163.56 121.705 157.653 117.771 150.827 117.771C145.827 117.771 141.321 119.881 138.148 123.259C138.148 123.239 138.148 123.219 138.148 123.199C138.149 123.178 138.149 123.158 138.149 123.138C138.149 101.672 120.75 84.2701 99.2869 84.2701C79.3339 84.2701 62.8954 99.3099 60.6806 118.672C57.7635 117.208 54.4691 116.383 50.9832 116.383C41.7642 116.383 33.8913 122.146 30.7683 130.268H61.0781H71.198H134.131H137.494H166.261H166.631V123.142Z" fill="#0487F3" fill-opacity="0.32"/>
<path fill-rule="evenodd" clip-rule="evenodd" d="M458.61 59.7563L458.498 61.8998C457.074 59.0376 454.121 57.0706 450.708 57.0706C448.208 57.0706 445.955 58.1258 444.368 59.8149C444.368 59.8048 444.368 59.7947 444.369 59.7845C444.369 59.7744 444.369 59.7643 444.369 59.7542C444.369 49.021 435.669 40.3203 424.938 40.3203C414.961 40.3203 406.742 47.8402 405.635 57.5211C404.176 56.7891 402.529 56.3766 400.786 56.3766C396.176 56.3766 392.24 59.2584 390.678 63.3192H405.833H410.893H442.36H444.042H458.425H458.61V59.7563Z" fill="#0487F3" fill-opacity="0.32"/>
</svg>
